<svg id="Capa_1" enable-background="new 0 0 512.001 512.001" height="512" viewBox="0 0 512.001 512.001" width="512" xmlns="http://www.w3.org/2000/svg"><path d="m19.744 511.231 63.64-21.213c2.209-.736 4.217-1.978 5.863-3.624l131.982-131.983 95.459 95.459c4.29 4.29 10.742 5.573 16.347 3.252 5.605-2.322 9.26-7.792 9.26-13.858 0-98.96 54.985-187.927 143.498-232.183l17.917-8.958c4.313-2.157 7.326-6.254 8.098-11.014.771-4.759-.79-9.6-4.2-13.009l-169.707-169.706c-3.409-3.41-8.25-4.972-13.009-4.2s-8.857 3.785-11.014 8.098l-8.958 17.917c-44.256 88.512-133.224 143.497-232.184 143.497-6.067 0-11.536 3.655-13.858 9.26s-1.038 12.057 3.252 16.347l95.459 95.459-131.982 131.982c-1.646 1.646-2.887 3.654-3.624 5.863l-21.213 63.64c-1.796 5.389-.395 11.331 3.624 15.35 4.017 4.017 9.96 5.42 15.35 3.624zm205.239-354.775c45.561-28.158 82.345-68.303 106.421-116.134l140.276 140.275c-47.831 24.076-87.976 60.86-116.134 106.42-22.266 36.026-36.271 76.3-41.228 118.055l-207.39-207.388c41.755-4.958 82.028-18.963 118.055-41.228zm-175.659 285.007 129.478-129.478 21.213 21.213-129.478 129.479-31.82 10.606z"/></svg>